<mxfile host="app.diagrams.net" modified="2023-12-01T05:46:05.069Z" agent="Mozilla/5.0 (Windows NT 10.0; Win64; x64) AppleWebKit/537.36 (KHTML, like Gecko) Chrome/119.0.0.0 Safari/537.36" etag="DEFitGnvk_bkKCLCzS8A" version="22.1.5" type="device">
  <diagram id="C5RBs43oDa-KdzZeNtuy" name="Page-1">
    <mxGraphModel dx="4870" dy="754" grid="1" gridSize="10" guides="1" tooltips="1" connect="1" arrows="1" fold="1" page="1" pageScale="1" pageWidth="827" pageHeight="1169" math="0" shadow="0">
      <root>
        <mxCell id="WIyWlLk6GJQsqaUBKTNV-0" />
        <mxCell id="WIyWlLk6GJQsqaUBKTNV-1" parent="WIyWlLk6GJQsqaUBKTNV-0" />
        <mxCell id="P6fPGGLqOdUaFQ4JSGxW-0" style="edgeStyle=orthogonalEdgeStyle;rounded=0;orthogonalLoop=1;jettySize=auto;html=1;exitX=0.5;exitY=1;exitDx=0;exitDy=0;" edge="1" parent="WIyWlLk6GJQsqaUBKTNV-1" source="P6fPGGLqOdUaFQ4JSGxW-1" target="P6fPGGLqOdUaFQ4JSGxW-31">
          <mxGeometry relative="1" as="geometry" />
        </mxCell>
        <mxCell id="P6fPGGLqOdUaFQ4JSGxW-1" value="start" style="ellipse;whiteSpace=wrap;html=1;" vertex="1" parent="WIyWlLk6GJQsqaUBKTNV-1">
          <mxGeometry x="354" y="30" width="120" height="80" as="geometry" />
        </mxCell>
        <mxCell id="P6fPGGLqOdUaFQ4JSGxW-2" style="edgeStyle=orthogonalEdgeStyle;rounded=0;orthogonalLoop=1;jettySize=auto;html=1;exitX=0.5;exitY=1;exitDx=0;exitDy=0;entryX=0.5;entryY=0;entryDx=0;entryDy=0;" edge="1" parent="WIyWlLk6GJQsqaUBKTNV-1" source="P6fPGGLqOdUaFQ4JSGxW-3" target="P6fPGGLqOdUaFQ4JSGxW-5">
          <mxGeometry relative="1" as="geometry" />
        </mxCell>
        <mxCell id="P6fPGGLqOdUaFQ4JSGxW-3" value="reverseArr(int arr[], int lenghth)" style="rounded=0;whiteSpace=wrap;html=1;" vertex="1" parent="WIyWlLk6GJQsqaUBKTNV-1">
          <mxGeometry x="810" y="40" width="120" height="60" as="geometry" />
        </mxCell>
        <mxCell id="P6fPGGLqOdUaFQ4JSGxW-4" style="edgeStyle=orthogonalEdgeStyle;rounded=0;orthogonalLoop=1;jettySize=auto;html=1;exitX=0.5;exitY=1;exitDx=0;exitDy=0;entryX=0.5;entryY=0;entryDx=0;entryDy=0;" edge="1" parent="WIyWlLk6GJQsqaUBKTNV-1" source="P6fPGGLqOdUaFQ4JSGxW-5" target="P6fPGGLqOdUaFQ4JSGxW-7">
          <mxGeometry relative="1" as="geometry" />
        </mxCell>
        <mxCell id="P6fPGGLqOdUaFQ4JSGxW-5" value="size , swap&lt;br&gt;i=0" style="rounded=0;whiteSpace=wrap;html=1;" vertex="1" parent="WIyWlLk6GJQsqaUBKTNV-1">
          <mxGeometry x="810" y="140" width="120" height="60" as="geometry" />
        </mxCell>
        <mxCell id="P6fPGGLqOdUaFQ4JSGxW-6" style="edgeStyle=orthogonalEdgeStyle;rounded=0;orthogonalLoop=1;jettySize=auto;html=1;exitX=0.5;exitY=1;exitDx=0;exitDy=0;entryX=0.5;entryY=0;entryDx=0;entryDy=0;" edge="1" parent="WIyWlLk6GJQsqaUBKTNV-1" source="P6fPGGLqOdUaFQ4JSGxW-7" target="P6fPGGLqOdUaFQ4JSGxW-9">
          <mxGeometry relative="1" as="geometry" />
        </mxCell>
        <mxCell id="P6fPGGLqOdUaFQ4JSGxW-7" value="i&amp;lt;lenghth/2?" style="rhombus;whiteSpace=wrap;html=1;" vertex="1" parent="WIyWlLk6GJQsqaUBKTNV-1">
          <mxGeometry x="830" y="240" width="80" height="80" as="geometry" />
        </mxCell>
        <mxCell id="P6fPGGLqOdUaFQ4JSGxW-8" style="edgeStyle=orthogonalEdgeStyle;rounded=0;orthogonalLoop=1;jettySize=auto;html=1;exitX=0.5;exitY=1;exitDx=0;exitDy=0;" edge="1" parent="WIyWlLk6GJQsqaUBKTNV-1" source="P6fPGGLqOdUaFQ4JSGxW-9" target="P6fPGGLqOdUaFQ4JSGxW-11">
          <mxGeometry relative="1" as="geometry" />
        </mxCell>
        <mxCell id="P6fPGGLqOdUaFQ4JSGxW-9" value="size = lenghth - i - 1&lt;br&gt;swap = arr[i]&lt;br&gt;arr[i] = arr[size]&lt;br&gt;arr[size] = swap" style="rounded=0;whiteSpace=wrap;html=1;" vertex="1" parent="WIyWlLk6GJQsqaUBKTNV-1">
          <mxGeometry x="810" y="360" width="120" height="60" as="geometry" />
        </mxCell>
        <mxCell id="P6fPGGLqOdUaFQ4JSGxW-10" style="edgeStyle=orthogonalEdgeStyle;rounded=0;orthogonalLoop=1;jettySize=auto;html=1;exitX=0;exitY=0.5;exitDx=0;exitDy=0;entryX=0;entryY=0.5;entryDx=0;entryDy=0;" edge="1" parent="WIyWlLk6GJQsqaUBKTNV-1" source="P6fPGGLqOdUaFQ4JSGxW-11" target="P6fPGGLqOdUaFQ4JSGxW-7">
          <mxGeometry relative="1" as="geometry" />
        </mxCell>
        <mxCell id="P6fPGGLqOdUaFQ4JSGxW-11" value="i++" style="rounded=0;whiteSpace=wrap;html=1;" vertex="1" parent="WIyWlLk6GJQsqaUBKTNV-1">
          <mxGeometry x="810" y="460" width="120" height="60" as="geometry" />
        </mxCell>
        <mxCell id="P6fPGGLqOdUaFQ4JSGxW-12" style="edgeStyle=orthogonalEdgeStyle;rounded=0;orthogonalLoop=1;jettySize=auto;html=1;exitX=0.5;exitY=1;exitDx=0;exitDy=0;" edge="1" parent="WIyWlLk6GJQsqaUBKTNV-1" source="P6fPGGLqOdUaFQ4JSGxW-13">
          <mxGeometry relative="1" as="geometry">
            <mxPoint x="1190" y="140" as="targetPoint" />
          </mxGeometry>
        </mxCell>
        <mxCell id="P6fPGGLqOdUaFQ4JSGxW-13" value="searchValue&amp;nbsp; (int arr[], int lenghth,int findValue)" style="rounded=0;whiteSpace=wrap;html=1;" vertex="1" parent="WIyWlLk6GJQsqaUBKTNV-1">
          <mxGeometry x="1130" y="40" width="120" height="60" as="geometry" />
        </mxCell>
        <mxCell id="P6fPGGLqOdUaFQ4JSGxW-14" style="edgeStyle=orthogonalEdgeStyle;rounded=0;orthogonalLoop=1;jettySize=auto;html=1;exitX=0.5;exitY=1;exitDx=0;exitDy=0;entryX=0.5;entryY=0;entryDx=0;entryDy=0;" edge="1" parent="WIyWlLk6GJQsqaUBKTNV-1" source="P6fPGGLqOdUaFQ4JSGxW-15" target="P6fPGGLqOdUaFQ4JSGxW-18">
          <mxGeometry relative="1" as="geometry" />
        </mxCell>
        <mxCell id="P6fPGGLqOdUaFQ4JSGxW-15" value="i = 0" style="rounded=0;whiteSpace=wrap;html=1;" vertex="1" parent="WIyWlLk6GJQsqaUBKTNV-1">
          <mxGeometry x="1140" y="140" width="120" height="60" as="geometry" />
        </mxCell>
        <mxCell id="P6fPGGLqOdUaFQ4JSGxW-16" style="edgeStyle=orthogonalEdgeStyle;rounded=0;orthogonalLoop=1;jettySize=auto;html=1;exitX=0.5;exitY=1;exitDx=0;exitDy=0;entryX=0.5;entryY=0;entryDx=0;entryDy=0;" edge="1" parent="WIyWlLk6GJQsqaUBKTNV-1" source="P6fPGGLqOdUaFQ4JSGxW-18" target="P6fPGGLqOdUaFQ4JSGxW-21">
          <mxGeometry relative="1" as="geometry" />
        </mxCell>
        <mxCell id="P6fPGGLqOdUaFQ4JSGxW-17" style="edgeStyle=orthogonalEdgeStyle;rounded=0;orthogonalLoop=1;jettySize=auto;html=1;exitX=1;exitY=0.5;exitDx=0;exitDy=0;" edge="1" parent="WIyWlLk6GJQsqaUBKTNV-1" source="P6fPGGLqOdUaFQ4JSGxW-18">
          <mxGeometry relative="1" as="geometry">
            <mxPoint x="1370" y="280" as="targetPoint" />
          </mxGeometry>
        </mxCell>
        <mxCell id="P6fPGGLqOdUaFQ4JSGxW-18" value="i&amp;lt;lenghth?" style="rhombus;whiteSpace=wrap;html=1;" vertex="1" parent="WIyWlLk6GJQsqaUBKTNV-1">
          <mxGeometry x="1160" y="240" width="80" height="80" as="geometry" />
        </mxCell>
        <mxCell id="P6fPGGLqOdUaFQ4JSGxW-19" style="edgeStyle=orthogonalEdgeStyle;rounded=0;orthogonalLoop=1;jettySize=auto;html=1;exitX=0.5;exitY=1;exitDx=0;exitDy=0;" edge="1" parent="WIyWlLk6GJQsqaUBKTNV-1" source="P6fPGGLqOdUaFQ4JSGxW-21">
          <mxGeometry relative="1" as="geometry">
            <mxPoint x="1201" y="460" as="targetPoint" />
          </mxGeometry>
        </mxCell>
        <mxCell id="P6fPGGLqOdUaFQ4JSGxW-20" style="edgeStyle=orthogonalEdgeStyle;rounded=0;orthogonalLoop=1;jettySize=auto;html=1;exitX=0;exitY=0.5;exitDx=0;exitDy=0;" edge="1" parent="WIyWlLk6GJQsqaUBKTNV-1" source="P6fPGGLqOdUaFQ4JSGxW-21">
          <mxGeometry relative="1" as="geometry">
            <mxPoint x="1110" y="390" as="targetPoint" />
          </mxGeometry>
        </mxCell>
        <mxCell id="P6fPGGLqOdUaFQ4JSGxW-21" value="arr[i] == findValue?" style="rhombus;whiteSpace=wrap;html=1;" vertex="1" parent="WIyWlLk6GJQsqaUBKTNV-1">
          <mxGeometry x="1161" y="350" width="80" height="80" as="geometry" />
        </mxCell>
        <mxCell id="P6fPGGLqOdUaFQ4JSGxW-22" style="edgeStyle=orthogonalEdgeStyle;rounded=0;orthogonalLoop=1;jettySize=auto;html=1;exitX=1;exitY=0.5;exitDx=0;exitDy=0;" edge="1" parent="WIyWlLk6GJQsqaUBKTNV-1" source="P6fPGGLqOdUaFQ4JSGxW-23">
          <mxGeometry relative="1" as="geometry">
            <mxPoint x="1320" y="280" as="targetPoint" />
          </mxGeometry>
        </mxCell>
        <mxCell id="P6fPGGLqOdUaFQ4JSGxW-23" value="return i" style="rounded=0;whiteSpace=wrap;html=1;" vertex="1" parent="WIyWlLk6GJQsqaUBKTNV-1">
          <mxGeometry x="1150" y="460" width="120" height="60" as="geometry" />
        </mxCell>
        <mxCell id="P6fPGGLqOdUaFQ4JSGxW-24" value="false" style="text;html=1;align=center;verticalAlign=middle;resizable=0;points=[];autosize=1;strokeColor=none;fillColor=none;" vertex="1" parent="WIyWlLk6GJQsqaUBKTNV-1">
          <mxGeometry x="1120" y="358" width="50" height="30" as="geometry" />
        </mxCell>
        <mxCell id="P6fPGGLqOdUaFQ4JSGxW-25" style="edgeStyle=orthogonalEdgeStyle;rounded=0;orthogonalLoop=1;jettySize=auto;html=1;exitX=0.5;exitY=0;exitDx=0;exitDy=0;entryX=0;entryY=0.5;entryDx=0;entryDy=0;" edge="1" parent="WIyWlLk6GJQsqaUBKTNV-1" source="P6fPGGLqOdUaFQ4JSGxW-26" target="P6fPGGLqOdUaFQ4JSGxW-18">
          <mxGeometry relative="1" as="geometry" />
        </mxCell>
        <mxCell id="P6fPGGLqOdUaFQ4JSGxW-26" value="i++" style="rounded=0;whiteSpace=wrap;html=1;" vertex="1" parent="WIyWlLk6GJQsqaUBKTNV-1">
          <mxGeometry x="990" y="358" width="120" height="60" as="geometry" />
        </mxCell>
        <mxCell id="P6fPGGLqOdUaFQ4JSGxW-27" value="false" style="text;html=1;align=center;verticalAlign=middle;resizable=0;points=[];autosize=1;strokeColor=none;fillColor=none;" vertex="1" parent="WIyWlLk6GJQsqaUBKTNV-1">
          <mxGeometry x="1255" y="248" width="50" height="30" as="geometry" />
        </mxCell>
        <mxCell id="P6fPGGLqOdUaFQ4JSGxW-28" value="true" style="text;html=1;align=center;verticalAlign=middle;resizable=0;points=[];autosize=1;strokeColor=none;fillColor=none;" vertex="1" parent="WIyWlLk6GJQsqaUBKTNV-1">
          <mxGeometry x="1190" y="318" width="40" height="30" as="geometry" />
        </mxCell>
        <mxCell id="P6fPGGLqOdUaFQ4JSGxW-29" value="true" style="text;html=1;align=center;verticalAlign=middle;resizable=0;points=[];autosize=1;strokeColor=none;fillColor=none;" vertex="1" parent="WIyWlLk6GJQsqaUBKTNV-1">
          <mxGeometry x="1200" y="428" width="40" height="30" as="geometry" />
        </mxCell>
        <mxCell id="P6fPGGLqOdUaFQ4JSGxW-30" style="edgeStyle=orthogonalEdgeStyle;rounded=0;orthogonalLoop=1;jettySize=auto;html=1;exitX=0.5;exitY=1;exitDx=0;exitDy=0;entryX=0.5;entryY=0;entryDx=0;entryDy=0;" edge="1" parent="WIyWlLk6GJQsqaUBKTNV-1" source="P6fPGGLqOdUaFQ4JSGxW-31" target="P6fPGGLqOdUaFQ4JSGxW-33">
          <mxGeometry relative="1" as="geometry" />
        </mxCell>
        <mxCell id="P6fPGGLqOdUaFQ4JSGxW-31" value="findValue, swap,&lt;br&gt;arr[100]&lt;br&gt;currentIndex = 0&lt;br&gt;currentIndex1 = 0&lt;br&gt;arr1[100]&lt;br&gt;arr2[100]&lt;br&gt;n" style="rounded=0;whiteSpace=wrap;html=1;" vertex="1" parent="WIyWlLk6GJQsqaUBKTNV-1">
          <mxGeometry x="354" y="150" width="120" height="100" as="geometry" />
        </mxCell>
        <mxCell id="P6fPGGLqOdUaFQ4JSGxW-32" style="edgeStyle=orthogonalEdgeStyle;rounded=0;orthogonalLoop=1;jettySize=auto;html=1;exitX=0.5;exitY=1;exitDx=0;exitDy=0;entryX=0.5;entryY=0;entryDx=0;entryDy=0;" edge="1" parent="WIyWlLk6GJQsqaUBKTNV-1" source="P6fPGGLqOdUaFQ4JSGxW-33" target="P6fPGGLqOdUaFQ4JSGxW-35">
          <mxGeometry relative="1" as="geometry" />
        </mxCell>
        <mxCell id="P6fPGGLqOdUaFQ4JSGxW-33" value="do" style="rounded=0;whiteSpace=wrap;html=1;" vertex="1" parent="WIyWlLk6GJQsqaUBKTNV-1">
          <mxGeometry x="354" y="288" width="120" height="60" as="geometry" />
        </mxCell>
        <mxCell id="P6fPGGLqOdUaFQ4JSGxW-34" style="edgeStyle=orthogonalEdgeStyle;rounded=0;orthogonalLoop=1;jettySize=auto;html=1;exitX=0.5;exitY=1;exitDx=0;exitDy=0;entryX=0.5;entryY=0;entryDx=0;entryDy=0;" edge="1" parent="WIyWlLk6GJQsqaUBKTNV-1" source="P6fPGGLqOdUaFQ4JSGxW-35">
          <mxGeometry relative="1" as="geometry">
            <mxPoint x="414" y="500" as="targetPoint" />
          </mxGeometry>
        </mxCell>
        <mxCell id="P6fPGGLqOdUaFQ4JSGxW-35" value="menu" style="shape=parallelogram;perimeter=parallelogramPerimeter;whiteSpace=wrap;html=1;fixedSize=1;" vertex="1" parent="WIyWlLk6GJQsqaUBKTNV-1">
          <mxGeometry x="354" y="398" width="120" height="60" as="geometry" />
        </mxCell>
        <mxCell id="P6fPGGLqOdUaFQ4JSGxW-36" style="edgeStyle=orthogonalEdgeStyle;rounded=0;orthogonalLoop=1;jettySize=auto;html=1;exitX=0;exitY=0.5;exitDx=0;exitDy=0;" edge="1" parent="WIyWlLk6GJQsqaUBKTNV-1" source="P6fPGGLqOdUaFQ4JSGxW-37" target="P6fPGGLqOdUaFQ4JSGxW-40">
          <mxGeometry relative="1" as="geometry" />
        </mxCell>
        <mxCell id="P6fPGGLqOdUaFQ4JSGxW-37" value="choice" style="shape=parallelogram;perimeter=parallelogramPerimeter;whiteSpace=wrap;html=1;fixedSize=1;" vertex="1" parent="WIyWlLk6GJQsqaUBKTNV-1">
          <mxGeometry x="354" y="500" width="120" height="60" as="geometry" />
        </mxCell>
        <mxCell id="P6fPGGLqOdUaFQ4JSGxW-38" value="true" style="edgeStyle=orthogonalEdgeStyle;rounded=0;orthogonalLoop=1;jettySize=auto;html=1;exitX=0.5;exitY=1;exitDx=0;exitDy=0;entryX=0.5;entryY=0;entryDx=0;entryDy=0;" edge="1" parent="WIyWlLk6GJQsqaUBKTNV-1" source="P6fPGGLqOdUaFQ4JSGxW-40" target="P6fPGGLqOdUaFQ4JSGxW-42">
          <mxGeometry relative="1" as="geometry" />
        </mxCell>
        <mxCell id="P6fPGGLqOdUaFQ4JSGxW-39" value="false" style="edgeStyle=orthogonalEdgeStyle;rounded=0;orthogonalLoop=1;jettySize=auto;html=1;exitX=0;exitY=0.5;exitDx=0;exitDy=0;" edge="1" parent="WIyWlLk6GJQsqaUBKTNV-1" source="P6fPGGLqOdUaFQ4JSGxW-40">
          <mxGeometry relative="1" as="geometry">
            <mxPoint x="-100" y="530" as="targetPoint" />
          </mxGeometry>
        </mxCell>
        <mxCell id="P6fPGGLqOdUaFQ4JSGxW-40" value="choice == 1?" style="rhombus;whiteSpace=wrap;html=1;" vertex="1" parent="WIyWlLk6GJQsqaUBKTNV-1">
          <mxGeometry x="170" y="490" width="80" height="80" as="geometry" />
        </mxCell>
        <mxCell id="P6fPGGLqOdUaFQ4JSGxW-41" style="edgeStyle=orthogonalEdgeStyle;rounded=0;orthogonalLoop=1;jettySize=auto;html=1;exitX=0.5;exitY=1;exitDx=0;exitDy=0;entryX=0.5;entryY=0;entryDx=0;entryDy=0;" edge="1" parent="WIyWlLk6GJQsqaUBKTNV-1" source="P6fPGGLqOdUaFQ4JSGxW-42" target="P6fPGGLqOdUaFQ4JSGxW-44">
          <mxGeometry relative="1" as="geometry" />
        </mxCell>
        <mxCell id="P6fPGGLqOdUaFQ4JSGxW-42" value="n" style="shape=parallelogram;perimeter=parallelogramPerimeter;whiteSpace=wrap;html=1;fixedSize=1;" vertex="1" parent="WIyWlLk6GJQsqaUBKTNV-1">
          <mxGeometry x="150" y="600" width="120" height="60" as="geometry" />
        </mxCell>
        <mxCell id="P6fPGGLqOdUaFQ4JSGxW-43" style="edgeStyle=orthogonalEdgeStyle;rounded=0;orthogonalLoop=1;jettySize=auto;html=1;exitX=0.5;exitY=1;exitDx=0;exitDy=0;entryX=0.5;entryY=0;entryDx=0;entryDy=0;" edge="1" parent="WIyWlLk6GJQsqaUBKTNV-1" source="P6fPGGLqOdUaFQ4JSGxW-44" target="P6fPGGLqOdUaFQ4JSGxW-46">
          <mxGeometry relative="1" as="geometry" />
        </mxCell>
        <mxCell id="P6fPGGLqOdUaFQ4JSGxW-44" value="i = 0" style="rounded=0;whiteSpace=wrap;html=1;" vertex="1" parent="WIyWlLk6GJQsqaUBKTNV-1">
          <mxGeometry x="150" y="690" width="120" height="60" as="geometry" />
        </mxCell>
        <mxCell id="P6fPGGLqOdUaFQ4JSGxW-45" style="edgeStyle=orthogonalEdgeStyle;rounded=0;orthogonalLoop=1;jettySize=auto;html=1;exitX=1;exitY=0.5;exitDx=0;exitDy=0;entryX=1;entryY=0.25;entryDx=0;entryDy=0;" edge="1" parent="WIyWlLk6GJQsqaUBKTNV-1" source="P6fPGGLqOdUaFQ4JSGxW-46" target="P6fPGGLqOdUaFQ4JSGxW-33">
          <mxGeometry relative="1" as="geometry">
            <mxPoint x="520" y="310" as="targetPoint" />
            <Array as="points">
              <mxPoint x="330" y="820" />
              <mxPoint x="330" y="1160" />
              <mxPoint x="520" y="1160" />
              <mxPoint x="520" y="303" />
            </Array>
          </mxGeometry>
        </mxCell>
        <mxCell id="P6fPGGLqOdUaFQ4JSGxW-46" value="i&amp;lt;n?" style="rhombus;whiteSpace=wrap;html=1;" vertex="1" parent="WIyWlLk6GJQsqaUBKTNV-1">
          <mxGeometry x="170" y="780" width="80" height="80" as="geometry" />
        </mxCell>
        <mxCell id="P6fPGGLqOdUaFQ4JSGxW-47" value="nhap gia tri phan tu" style="shape=parallelogram;perimeter=parallelogramPerimeter;whiteSpace=wrap;html=1;fixedSize=1;" vertex="1" parent="WIyWlLk6GJQsqaUBKTNV-1">
          <mxGeometry x="140" y="900" width="120" height="60" as="geometry" />
        </mxCell>
        <mxCell id="P6fPGGLqOdUaFQ4JSGxW-48" value="true" style="edgeStyle=orthogonalEdgeStyle;rounded=0;orthogonalLoop=1;jettySize=auto;html=1;exitX=0.5;exitY=1;exitDx=0;exitDy=0;entryX=0.587;entryY=-0.03;entryDx=0;entryDy=0;entryPerimeter=0;" edge="1" parent="WIyWlLk6GJQsqaUBKTNV-1" source="P6fPGGLqOdUaFQ4JSGxW-46" target="P6fPGGLqOdUaFQ4JSGxW-47">
          <mxGeometry relative="1" as="geometry" />
        </mxCell>
        <mxCell id="P6fPGGLqOdUaFQ4JSGxW-49" style="edgeStyle=orthogonalEdgeStyle;rounded=0;orthogonalLoop=1;jettySize=auto;html=1;exitX=0;exitY=0.5;exitDx=0;exitDy=0;entryX=0;entryY=0.5;entryDx=0;entryDy=0;" edge="1" parent="WIyWlLk6GJQsqaUBKTNV-1" source="P6fPGGLqOdUaFQ4JSGxW-50" target="P6fPGGLqOdUaFQ4JSGxW-46">
          <mxGeometry relative="1" as="geometry" />
        </mxCell>
        <mxCell id="P6fPGGLqOdUaFQ4JSGxW-50" value="i++&lt;br&gt;currentIndex++" style="rounded=0;whiteSpace=wrap;html=1;" vertex="1" parent="WIyWlLk6GJQsqaUBKTNV-1">
          <mxGeometry x="150" y="1000" width="120" height="60" as="geometry" />
        </mxCell>
        <mxCell id="P6fPGGLqOdUaFQ4JSGxW-51" style="edgeStyle=orthogonalEdgeStyle;rounded=0;orthogonalLoop=1;jettySize=auto;html=1;exitX=0.5;exitY=1;exitDx=0;exitDy=0;entryX=0.417;entryY=0;entryDx=0;entryDy=0;entryPerimeter=0;" edge="1" parent="WIyWlLk6GJQsqaUBKTNV-1" source="P6fPGGLqOdUaFQ4JSGxW-47" target="P6fPGGLqOdUaFQ4JSGxW-50">
          <mxGeometry relative="1" as="geometry" />
        </mxCell>
        <mxCell id="P6fPGGLqOdUaFQ4JSGxW-52" value="false" style="text;html=1;align=center;verticalAlign=middle;resizable=0;points=[];autosize=1;strokeColor=none;fillColor=none;" vertex="1" parent="WIyWlLk6GJQsqaUBKTNV-1">
          <mxGeometry x="255" y="788" width="50" height="30" as="geometry" />
        </mxCell>
        <mxCell id="P6fPGGLqOdUaFQ4JSGxW-53" style="edgeStyle=orthogonalEdgeStyle;rounded=0;orthogonalLoop=1;jettySize=auto;html=1;exitX=0.5;exitY=1;exitDx=0;exitDy=0;entryX=0.5;entryY=0;entryDx=0;entryDy=0;" edge="1" parent="WIyWlLk6GJQsqaUBKTNV-1" source="P6fPGGLqOdUaFQ4JSGxW-55" target="P6fPGGLqOdUaFQ4JSGxW-57">
          <mxGeometry relative="1" as="geometry" />
        </mxCell>
        <mxCell id="P6fPGGLqOdUaFQ4JSGxW-54" style="edgeStyle=orthogonalEdgeStyle;rounded=0;orthogonalLoop=1;jettySize=auto;html=1;exitX=0;exitY=0.5;exitDx=0;exitDy=0;" edge="1" parent="WIyWlLk6GJQsqaUBKTNV-1" source="P6fPGGLqOdUaFQ4JSGxW-55">
          <mxGeometry relative="1" as="geometry">
            <mxPoint x="-410" y="530" as="targetPoint" />
          </mxGeometry>
        </mxCell>
        <mxCell id="P6fPGGLqOdUaFQ4JSGxW-55" value="choice == 2?" style="rhombus;whiteSpace=wrap;html=1;" vertex="1" parent="WIyWlLk6GJQsqaUBKTNV-1">
          <mxGeometry x="-180" y="490" width="80" height="80" as="geometry" />
        </mxCell>
        <mxCell id="P6fPGGLqOdUaFQ4JSGxW-56" style="edgeStyle=orthogonalEdgeStyle;rounded=0;orthogonalLoop=1;jettySize=auto;html=1;exitX=0.5;exitY=1;exitDx=0;exitDy=0;entryX=0.5;entryY=0;entryDx=0;entryDy=0;" edge="1" parent="WIyWlLk6GJQsqaUBKTNV-1" source="P6fPGGLqOdUaFQ4JSGxW-57" target="P6fPGGLqOdUaFQ4JSGxW-60">
          <mxGeometry relative="1" as="geometry" />
        </mxCell>
        <mxCell id="P6fPGGLqOdUaFQ4JSGxW-57" value="i = 0" style="rounded=0;whiteSpace=wrap;html=1;" vertex="1" parent="WIyWlLk6GJQsqaUBKTNV-1">
          <mxGeometry x="-200" y="585" width="120" height="60" as="geometry" />
        </mxCell>
        <mxCell id="P6fPGGLqOdUaFQ4JSGxW-58" value="true" style="edgeStyle=orthogonalEdgeStyle;rounded=0;orthogonalLoop=1;jettySize=auto;html=1;exitX=0.5;exitY=1;exitDx=0;exitDy=0;" edge="1" parent="WIyWlLk6GJQsqaUBKTNV-1" source="P6fPGGLqOdUaFQ4JSGxW-60">
          <mxGeometry relative="1" as="geometry">
            <mxPoint x="-140" y="800" as="targetPoint" />
          </mxGeometry>
        </mxCell>
        <mxCell id="P6fPGGLqOdUaFQ4JSGxW-59" style="edgeStyle=orthogonalEdgeStyle;rounded=0;orthogonalLoop=1;jettySize=auto;html=1;exitX=1;exitY=0.5;exitDx=0;exitDy=0;" edge="1" parent="WIyWlLk6GJQsqaUBKTNV-1" source="P6fPGGLqOdUaFQ4JSGxW-60">
          <mxGeometry relative="1" as="geometry">
            <mxPoint x="330" y="1160" as="targetPoint" />
            <Array as="points">
              <mxPoint y="710" />
              <mxPoint y="1160" />
              <mxPoint x="330" y="1160" />
            </Array>
          </mxGeometry>
        </mxCell>
        <mxCell id="P6fPGGLqOdUaFQ4JSGxW-60" value="i&amp;lt;currentIndex?" style="rhombus;whiteSpace=wrap;html=1;" vertex="1" parent="WIyWlLk6GJQsqaUBKTNV-1">
          <mxGeometry x="-180" y="670" width="80" height="80" as="geometry" />
        </mxCell>
        <mxCell id="P6fPGGLqOdUaFQ4JSGxW-61" style="edgeStyle=orthogonalEdgeStyle;rounded=0;orthogonalLoop=1;jettySize=auto;html=1;exitX=0.5;exitY=1;exitDx=0;exitDy=0;" edge="1" parent="WIyWlLk6GJQsqaUBKTNV-1" source="P6fPGGLqOdUaFQ4JSGxW-62">
          <mxGeometry relative="1" as="geometry">
            <mxPoint x="-150" y="910" as="targetPoint" />
          </mxGeometry>
        </mxCell>
        <mxCell id="P6fPGGLqOdUaFQ4JSGxW-62" value="in ra gia tri phan tu" style="shape=parallelogram;perimeter=parallelogramPerimeter;whiteSpace=wrap;html=1;fixedSize=1;" vertex="1" parent="WIyWlLk6GJQsqaUBKTNV-1">
          <mxGeometry x="-210" y="800" width="120" height="60" as="geometry" />
        </mxCell>
        <mxCell id="P6fPGGLqOdUaFQ4JSGxW-63" style="edgeStyle=orthogonalEdgeStyle;rounded=0;orthogonalLoop=1;jettySize=auto;html=1;exitX=0;exitY=0.5;exitDx=0;exitDy=0;entryX=0;entryY=0.5;entryDx=0;entryDy=0;" edge="1" parent="WIyWlLk6GJQsqaUBKTNV-1" source="P6fPGGLqOdUaFQ4JSGxW-64" target="P6fPGGLqOdUaFQ4JSGxW-60">
          <mxGeometry relative="1" as="geometry" />
        </mxCell>
        <mxCell id="P6fPGGLqOdUaFQ4JSGxW-64" value="i++" style="rounded=0;whiteSpace=wrap;html=1;" vertex="1" parent="WIyWlLk6GJQsqaUBKTNV-1">
          <mxGeometry x="-210" y="910" width="120" height="60" as="geometry" />
        </mxCell>
        <mxCell id="P6fPGGLqOdUaFQ4JSGxW-65" value="fasle" style="text;html=1;align=center;verticalAlign=middle;resizable=0;points=[];autosize=1;strokeColor=none;fillColor=none;" vertex="1" parent="WIyWlLk6GJQsqaUBKTNV-1">
          <mxGeometry x="-105" y="688" width="50" height="30" as="geometry" />
        </mxCell>
        <mxCell id="P6fPGGLqOdUaFQ4JSGxW-66" value="true" style="text;html=1;align=center;verticalAlign=middle;resizable=0;points=[];autosize=1;strokeColor=none;fillColor=none;" vertex="1" parent="WIyWlLk6GJQsqaUBKTNV-1">
          <mxGeometry x="-130" y="548" width="40" height="30" as="geometry" />
        </mxCell>
        <mxCell id="P6fPGGLqOdUaFQ4JSGxW-67" style="edgeStyle=orthogonalEdgeStyle;rounded=0;orthogonalLoop=1;jettySize=auto;html=1;exitX=0.5;exitY=1;exitDx=0;exitDy=0;entryX=0.5;entryY=0;entryDx=0;entryDy=0;" edge="1" parent="WIyWlLk6GJQsqaUBKTNV-1" source="P6fPGGLqOdUaFQ4JSGxW-69" target="P6fPGGLqOdUaFQ4JSGxW-74">
          <mxGeometry relative="1" as="geometry" />
        </mxCell>
        <mxCell id="P6fPGGLqOdUaFQ4JSGxW-68" style="edgeStyle=orthogonalEdgeStyle;rounded=0;orthogonalLoop=1;jettySize=auto;html=1;exitX=0;exitY=0.5;exitDx=0;exitDy=0;" edge="1" parent="WIyWlLk6GJQsqaUBKTNV-1" source="P6fPGGLqOdUaFQ4JSGxW-69">
          <mxGeometry relative="1" as="geometry">
            <mxPoint x="-720" y="530" as="targetPoint" />
          </mxGeometry>
        </mxCell>
        <mxCell id="P6fPGGLqOdUaFQ4JSGxW-69" value="choice == 3?" style="rhombus;whiteSpace=wrap;html=1;" vertex="1" parent="WIyWlLk6GJQsqaUBKTNV-1">
          <mxGeometry x="-493" y="490" width="80" height="80" as="geometry" />
        </mxCell>
        <mxCell id="P6fPGGLqOdUaFQ4JSGxW-70" style="edgeStyle=orthogonalEdgeStyle;rounded=0;orthogonalLoop=1;jettySize=auto;html=1;exitX=0.5;exitY=1;exitDx=0;exitDy=0;" edge="1" parent="WIyWlLk6GJQsqaUBKTNV-1" source="P6fPGGLqOdUaFQ4JSGxW-72">
          <mxGeometry relative="1" as="geometry">
            <mxPoint x="-453" y="800" as="targetPoint" />
          </mxGeometry>
        </mxCell>
        <mxCell id="P6fPGGLqOdUaFQ4JSGxW-71" style="edgeStyle=orthogonalEdgeStyle;rounded=0;orthogonalLoop=1;jettySize=auto;html=1;exitX=1;exitY=0.5;exitDx=0;exitDy=0;" edge="1" parent="WIyWlLk6GJQsqaUBKTNV-1" source="P6fPGGLqOdUaFQ4JSGxW-72">
          <mxGeometry relative="1" as="geometry">
            <mxPoint x="-360" y="1010" as="targetPoint" />
          </mxGeometry>
        </mxCell>
        <mxCell id="P6fPGGLqOdUaFQ4JSGxW-72" value="i&amp;lt;currentIndex?" style="rhombus;whiteSpace=wrap;html=1;" vertex="1" parent="WIyWlLk6GJQsqaUBKTNV-1">
          <mxGeometry x="-493" y="680" width="80" height="80" as="geometry" />
        </mxCell>
        <mxCell id="P6fPGGLqOdUaFQ4JSGxW-73" style="edgeStyle=orthogonalEdgeStyle;rounded=0;orthogonalLoop=1;jettySize=auto;html=1;exitX=0.5;exitY=1;exitDx=0;exitDy=0;entryX=0.5;entryY=0;entryDx=0;entryDy=0;" edge="1" parent="WIyWlLk6GJQsqaUBKTNV-1" source="P6fPGGLqOdUaFQ4JSGxW-74" target="P6fPGGLqOdUaFQ4JSGxW-72">
          <mxGeometry relative="1" as="geometry" />
        </mxCell>
        <mxCell id="P6fPGGLqOdUaFQ4JSGxW-74" value="i=0" style="rounded=0;whiteSpace=wrap;html=1;" vertex="1" parent="WIyWlLk6GJQsqaUBKTNV-1">
          <mxGeometry x="-513" y="590" width="120" height="60" as="geometry" />
        </mxCell>
        <mxCell id="P6fPGGLqOdUaFQ4JSGxW-75" style="edgeStyle=orthogonalEdgeStyle;rounded=0;orthogonalLoop=1;jettySize=auto;html=1;exitX=0.5;exitY=1;exitDx=0;exitDy=0;" edge="1" parent="WIyWlLk6GJQsqaUBKTNV-1" source="P6fPGGLqOdUaFQ4JSGxW-76">
          <mxGeometry relative="1" as="geometry">
            <mxPoint x="-453" y="910" as="targetPoint" />
          </mxGeometry>
        </mxCell>
        <mxCell id="P6fPGGLqOdUaFQ4JSGxW-76" value="arr2[i] = arr[i]" style="rounded=0;whiteSpace=wrap;html=1;" vertex="1" parent="WIyWlLk6GJQsqaUBKTNV-1">
          <mxGeometry x="-513" y="800" width="120" height="60" as="geometry" />
        </mxCell>
        <mxCell id="P6fPGGLqOdUaFQ4JSGxW-77" style="edgeStyle=orthogonalEdgeStyle;rounded=0;orthogonalLoop=1;jettySize=auto;html=1;exitX=0;exitY=0.5;exitDx=0;exitDy=0;entryX=0;entryY=0.5;entryDx=0;entryDy=0;" edge="1" parent="WIyWlLk6GJQsqaUBKTNV-1" source="P6fPGGLqOdUaFQ4JSGxW-78" target="P6fPGGLqOdUaFQ4JSGxW-72">
          <mxGeometry relative="1" as="geometry" />
        </mxCell>
        <mxCell id="P6fPGGLqOdUaFQ4JSGxW-78" value="i++" style="rounded=0;whiteSpace=wrap;html=1;" vertex="1" parent="WIyWlLk6GJQsqaUBKTNV-1">
          <mxGeometry x="-513" y="910" width="120" height="60" as="geometry" />
        </mxCell>
        <mxCell id="P6fPGGLqOdUaFQ4JSGxW-79" style="edgeStyle=orthogonalEdgeStyle;rounded=0;orthogonalLoop=1;jettySize=auto;html=1;exitX=0.5;exitY=1;exitDx=0;exitDy=0;" edge="1" parent="WIyWlLk6GJQsqaUBKTNV-1" source="P6fPGGLqOdUaFQ4JSGxW-80">
          <mxGeometry relative="1" as="geometry">
            <mxPoint y="1160" as="targetPoint" />
            <Array as="points">
              <mxPoint x="-360" y="1160" />
            </Array>
          </mxGeometry>
        </mxCell>
        <mxCell id="P6fPGGLqOdUaFQ4JSGxW-80" value="mang sa sao chep&lt;br&gt;arr2[]" style="shape=parallelogram;perimeter=parallelogramPerimeter;whiteSpace=wrap;html=1;fixedSize=1;" vertex="1" parent="WIyWlLk6GJQsqaUBKTNV-1">
          <mxGeometry x="-420" y="1010" width="120" height="60" as="geometry" />
        </mxCell>
        <mxCell id="P6fPGGLqOdUaFQ4JSGxW-81" style="edgeStyle=orthogonalEdgeStyle;rounded=0;orthogonalLoop=1;jettySize=auto;html=1;exitX=0.5;exitY=1;exitDx=0;exitDy=0;" edge="1" parent="WIyWlLk6GJQsqaUBKTNV-1" source="P6fPGGLqOdUaFQ4JSGxW-83" target="P6fPGGLqOdUaFQ4JSGxW-85">
          <mxGeometry relative="1" as="geometry" />
        </mxCell>
        <mxCell id="P6fPGGLqOdUaFQ4JSGxW-82" style="edgeStyle=orthogonalEdgeStyle;rounded=0;orthogonalLoop=1;jettySize=auto;html=1;exitX=0.5;exitY=0;exitDx=0;exitDy=0;entryX=1;entryY=0.5;entryDx=0;entryDy=0;" edge="1" parent="WIyWlLk6GJQsqaUBKTNV-1" source="P6fPGGLqOdUaFQ4JSGxW-83" target="P6fPGGLqOdUaFQ4JSGxW-146">
          <mxGeometry relative="1" as="geometry" />
        </mxCell>
        <mxCell id="P6fPGGLqOdUaFQ4JSGxW-83" value="choice == 4?" style="rhombus;whiteSpace=wrap;html=1;" vertex="1" parent="WIyWlLk6GJQsqaUBKTNV-1">
          <mxGeometry x="-800" y="490" width="80" height="80" as="geometry" />
        </mxCell>
        <mxCell id="P6fPGGLqOdUaFQ4JSGxW-84" style="edgeStyle=orthogonalEdgeStyle;rounded=0;orthogonalLoop=1;jettySize=auto;html=1;exitX=0.5;exitY=1;exitDx=0;exitDy=0;entryX=0.5;entryY=0;entryDx=0;entryDy=0;" edge="1" parent="WIyWlLk6GJQsqaUBKTNV-1" source="P6fPGGLqOdUaFQ4JSGxW-85">
          <mxGeometry relative="1" as="geometry">
            <mxPoint x="-760" y="708" as="targetPoint" />
          </mxGeometry>
        </mxCell>
        <mxCell id="P6fPGGLqOdUaFQ4JSGxW-85" value="so phan tu muon them n" style="shape=parallelogram;perimeter=parallelogramPerimeter;whiteSpace=wrap;html=1;fixedSize=1;" vertex="1" parent="WIyWlLk6GJQsqaUBKTNV-1">
          <mxGeometry x="-820" y="610" width="120" height="60" as="geometry" />
        </mxCell>
        <mxCell id="P6fPGGLqOdUaFQ4JSGxW-86" style="edgeStyle=orthogonalEdgeStyle;rounded=0;orthogonalLoop=1;jettySize=auto;html=1;exitX=0.5;exitY=1;exitDx=0;exitDy=0;entryX=0.5;entryY=0;entryDx=0;entryDy=0;" edge="1" parent="WIyWlLk6GJQsqaUBKTNV-1" source="P6fPGGLqOdUaFQ4JSGxW-87" target="P6fPGGLqOdUaFQ4JSGxW-90">
          <mxGeometry relative="1" as="geometry" />
        </mxCell>
        <mxCell id="P6fPGGLqOdUaFQ4JSGxW-87" value="i=0" style="rounded=0;whiteSpace=wrap;html=1;" vertex="1" parent="WIyWlLk6GJQsqaUBKTNV-1">
          <mxGeometry x="-820" y="710" width="120" height="60" as="geometry" />
        </mxCell>
        <mxCell id="P6fPGGLqOdUaFQ4JSGxW-88" value="true" style="edgeStyle=orthogonalEdgeStyle;rounded=0;orthogonalLoop=1;jettySize=auto;html=1;exitX=0.5;exitY=1;exitDx=0;exitDy=0;entryX=0.5;entryY=0;entryDx=0;entryDy=0;" edge="1" parent="WIyWlLk6GJQsqaUBKTNV-1" source="P6fPGGLqOdUaFQ4JSGxW-90" target="P6fPGGLqOdUaFQ4JSGxW-92">
          <mxGeometry relative="1" as="geometry" />
        </mxCell>
        <mxCell id="P6fPGGLqOdUaFQ4JSGxW-89" style="edgeStyle=orthogonalEdgeStyle;rounded=0;orthogonalLoop=1;jettySize=auto;html=1;exitX=0;exitY=0.5;exitDx=0;exitDy=0;" edge="1" parent="WIyWlLk6GJQsqaUBKTNV-1" source="P6fPGGLqOdUaFQ4JSGxW-90">
          <mxGeometry relative="1" as="geometry">
            <mxPoint x="-940" y="840" as="targetPoint" />
          </mxGeometry>
        </mxCell>
        <mxCell id="P6fPGGLqOdUaFQ4JSGxW-90" value="i&amp;lt;n?" style="rhombus;whiteSpace=wrap;html=1;" vertex="1" parent="WIyWlLk6GJQsqaUBKTNV-1">
          <mxGeometry x="-800" y="800" width="80" height="80" as="geometry" />
        </mxCell>
        <mxCell id="P6fPGGLqOdUaFQ4JSGxW-91" style="edgeStyle=orthogonalEdgeStyle;rounded=0;orthogonalLoop=1;jettySize=auto;html=1;exitX=0.5;exitY=1;exitDx=0;exitDy=0;entryX=0.5;entryY=0;entryDx=0;entryDy=0;" edge="1" parent="WIyWlLk6GJQsqaUBKTNV-1" source="P6fPGGLqOdUaFQ4JSGxW-92" target="P6fPGGLqOdUaFQ4JSGxW-94">
          <mxGeometry relative="1" as="geometry" />
        </mxCell>
        <mxCell id="P6fPGGLqOdUaFQ4JSGxW-92" value="nhap gia tri arr1" style="shape=parallelogram;perimeter=parallelogramPerimeter;whiteSpace=wrap;html=1;fixedSize=1;" vertex="1" parent="WIyWlLk6GJQsqaUBKTNV-1">
          <mxGeometry x="-820" y="910" width="120" height="60" as="geometry" />
        </mxCell>
        <mxCell id="P6fPGGLqOdUaFQ4JSGxW-93" style="edgeStyle=orthogonalEdgeStyle;rounded=0;orthogonalLoop=1;jettySize=auto;html=1;exitX=1;exitY=0.5;exitDx=0;exitDy=0;entryX=1;entryY=0.5;entryDx=0;entryDy=0;" edge="1" parent="WIyWlLk6GJQsqaUBKTNV-1" source="P6fPGGLqOdUaFQ4JSGxW-94" target="P6fPGGLqOdUaFQ4JSGxW-90">
          <mxGeometry relative="1" as="geometry" />
        </mxCell>
        <mxCell id="P6fPGGLqOdUaFQ4JSGxW-94" value="currentIndex1++&lt;br&gt;i++" style="rounded=0;whiteSpace=wrap;html=1;" vertex="1" parent="WIyWlLk6GJQsqaUBKTNV-1">
          <mxGeometry x="-820" y="1010" width="120" height="60" as="geometry" />
        </mxCell>
        <mxCell id="P6fPGGLqOdUaFQ4JSGxW-95" value="true" style="edgeStyle=orthogonalEdgeStyle;rounded=0;orthogonalLoop=1;jettySize=auto;html=1;exitX=0.5;exitY=1;exitDx=0;exitDy=0;" edge="1" parent="WIyWlLk6GJQsqaUBKTNV-1" source="P6fPGGLqOdUaFQ4JSGxW-97">
          <mxGeometry relative="1" as="geometry">
            <mxPoint x="-1055" y="930" as="targetPoint" />
          </mxGeometry>
        </mxCell>
        <mxCell id="P6fPGGLqOdUaFQ4JSGxW-96" style="edgeStyle=orthogonalEdgeStyle;rounded=0;orthogonalLoop=1;jettySize=auto;html=1;exitX=0;exitY=0.5;exitDx=0;exitDy=0;" edge="1" parent="WIyWlLk6GJQsqaUBKTNV-1" source="P6fPGGLqOdUaFQ4JSGxW-97">
          <mxGeometry relative="1" as="geometry">
            <mxPoint x="-1820" y="840" as="targetPoint" />
          </mxGeometry>
        </mxCell>
        <mxCell id="P6fPGGLqOdUaFQ4JSGxW-97" value="currentIndex&amp;gt;currentIndex1?" style="rhombus;whiteSpace=wrap;html=1;" vertex="1" parent="WIyWlLk6GJQsqaUBKTNV-1">
          <mxGeometry x="-1170" y="800" width="230" height="80" as="geometry" />
        </mxCell>
        <mxCell id="P6fPGGLqOdUaFQ4JSGxW-98" style="edgeStyle=orthogonalEdgeStyle;rounded=0;orthogonalLoop=1;jettySize=auto;html=1;exitX=0.5;exitY=1;exitDx=0;exitDy=0;entryX=0.5;entryY=0;entryDx=0;entryDy=0;" edge="1" parent="WIyWlLk6GJQsqaUBKTNV-1" source="P6fPGGLqOdUaFQ4JSGxW-99" target="P6fPGGLqOdUaFQ4JSGxW-102">
          <mxGeometry relative="1" as="geometry" />
        </mxCell>
        <mxCell id="P6fPGGLqOdUaFQ4JSGxW-99" value="i=0" style="rounded=0;whiteSpace=wrap;html=1;" vertex="1" parent="WIyWlLk6GJQsqaUBKTNV-1">
          <mxGeometry x="-1120" y="930" width="120" height="60" as="geometry" />
        </mxCell>
        <mxCell id="P6fPGGLqOdUaFQ4JSGxW-100" value="true" style="edgeStyle=orthogonalEdgeStyle;rounded=0;orthogonalLoop=1;jettySize=auto;html=1;exitX=0.5;exitY=1;exitDx=0;exitDy=0;entryX=0.5;entryY=0;entryDx=0;entryDy=0;" edge="1" parent="WIyWlLk6GJQsqaUBKTNV-1" source="P6fPGGLqOdUaFQ4JSGxW-102" target="P6fPGGLqOdUaFQ4JSGxW-105">
          <mxGeometry relative="1" as="geometry" />
        </mxCell>
        <mxCell id="P6fPGGLqOdUaFQ4JSGxW-101" value="false" style="edgeStyle=orthogonalEdgeStyle;rounded=0;orthogonalLoop=1;jettySize=auto;html=1;exitX=0;exitY=0.5;exitDx=0;exitDy=0;" edge="1" parent="WIyWlLk6GJQsqaUBKTNV-1" source="P6fPGGLqOdUaFQ4JSGxW-102">
          <mxGeometry relative="1" as="geometry">
            <mxPoint x="-1470" y="1070" as="targetPoint" />
          </mxGeometry>
        </mxCell>
        <mxCell id="P6fPGGLqOdUaFQ4JSGxW-102" value="i&amp;lt;currentIndex?" style="rhombus;whiteSpace=wrap;html=1;" vertex="1" parent="WIyWlLk6GJQsqaUBKTNV-1">
          <mxGeometry x="-1100" y="1030" width="80" height="80" as="geometry" />
        </mxCell>
        <mxCell id="P6fPGGLqOdUaFQ4JSGxW-103" style="edgeStyle=orthogonalEdgeStyle;rounded=0;orthogonalLoop=1;jettySize=auto;html=1;exitX=0.5;exitY=1;exitDx=0;exitDy=0;" edge="1" parent="WIyWlLk6GJQsqaUBKTNV-1" source="P6fPGGLqOdUaFQ4JSGxW-105" target="P6fPGGLqOdUaFQ4JSGxW-107">
          <mxGeometry relative="1" as="geometry" />
        </mxCell>
        <mxCell id="P6fPGGLqOdUaFQ4JSGxW-104" value="false" style="edgeStyle=orthogonalEdgeStyle;rounded=0;orthogonalLoop=1;jettySize=auto;html=1;exitX=0;exitY=0.5;exitDx=0;exitDy=0;" edge="1" parent="WIyWlLk6GJQsqaUBKTNV-1" source="P6fPGGLqOdUaFQ4JSGxW-105">
          <mxGeometry relative="1" as="geometry">
            <mxPoint x="-1200" y="1190" as="targetPoint" />
          </mxGeometry>
        </mxCell>
        <mxCell id="P6fPGGLqOdUaFQ4JSGxW-105" value="i&amp;lt;currentIndex1?" style="rhombus;whiteSpace=wrap;html=1;" vertex="1" parent="WIyWlLk6GJQsqaUBKTNV-1">
          <mxGeometry x="-1100" y="1150" width="80" height="80" as="geometry" />
        </mxCell>
        <mxCell id="P6fPGGLqOdUaFQ4JSGxW-106" style="edgeStyle=orthogonalEdgeStyle;rounded=0;orthogonalLoop=1;jettySize=auto;html=1;exitX=0.5;exitY=1;exitDx=0;exitDy=0;" edge="1" parent="WIyWlLk6GJQsqaUBKTNV-1" source="P6fPGGLqOdUaFQ4JSGxW-107">
          <mxGeometry relative="1" as="geometry">
            <mxPoint x="-1070" y="1350" as="targetPoint" />
          </mxGeometry>
        </mxCell>
        <mxCell id="P6fPGGLqOdUaFQ4JSGxW-107" value="swap = arr[i]&lt;br&gt;arr[i] = arr1[i]&lt;br&gt;arr1[i] = swap" style="rounded=0;whiteSpace=wrap;html=1;" vertex="1" parent="WIyWlLk6GJQsqaUBKTNV-1">
          <mxGeometry x="-1120" y="1270" width="120" height="60" as="geometry" />
        </mxCell>
        <mxCell id="P6fPGGLqOdUaFQ4JSGxW-108" style="edgeStyle=orthogonalEdgeStyle;rounded=0;orthogonalLoop=1;jettySize=auto;html=1;exitX=0.5;exitY=1;exitDx=0;exitDy=0;entryX=0.5;entryY=0;entryDx=0;entryDy=0;" edge="1" parent="WIyWlLk6GJQsqaUBKTNV-1" source="P6fPGGLqOdUaFQ4JSGxW-110" target="P6fPGGLqOdUaFQ4JSGxW-112">
          <mxGeometry relative="1" as="geometry" />
        </mxCell>
        <mxCell id="P6fPGGLqOdUaFQ4JSGxW-109" value="false" style="edgeStyle=orthogonalEdgeStyle;rounded=0;orthogonalLoop=1;jettySize=auto;html=1;exitX=0;exitY=0.5;exitDx=0;exitDy=0;" edge="1" parent="WIyWlLk6GJQsqaUBKTNV-1" source="P6fPGGLqOdUaFQ4JSGxW-110">
          <mxGeometry relative="1" as="geometry">
            <mxPoint x="-1240" y="1350" as="targetPoint" />
            <Array as="points">
              <mxPoint x="-1390" y="1190" />
            </Array>
          </mxGeometry>
        </mxCell>
        <mxCell id="P6fPGGLqOdUaFQ4JSGxW-110" value="i&amp;gt;currentIndex1?" style="rhombus;whiteSpace=wrap;html=1;" vertex="1" parent="WIyWlLk6GJQsqaUBKTNV-1">
          <mxGeometry x="-1280" y="1150" width="80" height="80" as="geometry" />
        </mxCell>
        <mxCell id="P6fPGGLqOdUaFQ4JSGxW-111" style="edgeStyle=orthogonalEdgeStyle;rounded=0;orthogonalLoop=1;jettySize=auto;html=1;exitX=0.5;exitY=1;exitDx=0;exitDy=0;entryX=0.5;entryY=1;entryDx=0;entryDy=0;" edge="1" parent="WIyWlLk6GJQsqaUBKTNV-1" source="P6fPGGLqOdUaFQ4JSGxW-112" target="P6fPGGLqOdUaFQ4JSGxW-114">
          <mxGeometry relative="1" as="geometry">
            <mxPoint x="-1240" y="1380" as="targetPoint" />
          </mxGeometry>
        </mxCell>
        <mxCell id="P6fPGGLqOdUaFQ4JSGxW-112" value="arr1[i] = arr[i]&lt;br&gt;arr[i] = &quot;\0&quot;" style="rounded=0;whiteSpace=wrap;html=1;" vertex="1" parent="WIyWlLk6GJQsqaUBKTNV-1">
          <mxGeometry x="-1300" y="1270" width="120" height="60" as="geometry" />
        </mxCell>
        <mxCell id="P6fPGGLqOdUaFQ4JSGxW-113" style="edgeStyle=orthogonalEdgeStyle;rounded=0;orthogonalLoop=1;jettySize=auto;html=1;exitX=0.5;exitY=0;exitDx=0;exitDy=0;entryX=1;entryY=0.5;entryDx=0;entryDy=0;" edge="1" parent="WIyWlLk6GJQsqaUBKTNV-1" source="P6fPGGLqOdUaFQ4JSGxW-114" target="P6fPGGLqOdUaFQ4JSGxW-102">
          <mxGeometry relative="1" as="geometry" />
        </mxCell>
        <mxCell id="P6fPGGLqOdUaFQ4JSGxW-114" value="i++" style="rounded=0;whiteSpace=wrap;html=1;" vertex="1" parent="WIyWlLk6GJQsqaUBKTNV-1">
          <mxGeometry x="-930" y="1270" width="120" height="60" as="geometry" />
        </mxCell>
        <mxCell id="P6fPGGLqOdUaFQ4JSGxW-115" style="edgeStyle=orthogonalEdgeStyle;rounded=0;orthogonalLoop=1;jettySize=auto;html=1;exitX=0.5;exitY=1;exitDx=0;exitDy=0;" edge="1" parent="WIyWlLk6GJQsqaUBKTNV-1" source="P6fPGGLqOdUaFQ4JSGxW-116">
          <mxGeometry relative="1" as="geometry">
            <mxPoint x="-2530" y="1480" as="targetPoint" />
            <Array as="points">
              <mxPoint x="-1570" y="1480" />
            </Array>
          </mxGeometry>
        </mxCell>
        <mxCell id="P6fPGGLqOdUaFQ4JSGxW-116" value="swap = currentIndex&lt;br&gt;currentIndex = currentIndex1&lt;br&gt;currentIndex1 = swap" style="rounded=0;whiteSpace=wrap;html=1;" vertex="1" parent="WIyWlLk6GJQsqaUBKTNV-1">
          <mxGeometry x="-1680" y="1040" width="210" height="60" as="geometry" />
        </mxCell>
        <mxCell id="P6fPGGLqOdUaFQ4JSGxW-117" style="edgeStyle=orthogonalEdgeStyle;rounded=0;orthogonalLoop=1;jettySize=auto;html=1;exitX=0.5;exitY=1;exitDx=0;exitDy=0;" edge="1" parent="WIyWlLk6GJQsqaUBKTNV-1" source="P6fPGGLqOdUaFQ4JSGxW-119">
          <mxGeometry relative="1" as="geometry">
            <mxPoint x="-1935" y="950" as="targetPoint" />
          </mxGeometry>
        </mxCell>
        <mxCell id="P6fPGGLqOdUaFQ4JSGxW-118" style="edgeStyle=orthogonalEdgeStyle;rounded=0;orthogonalLoop=1;jettySize=auto;html=1;exitX=0;exitY=0.5;exitDx=0;exitDy=0;" edge="1" parent="WIyWlLk6GJQsqaUBKTNV-1" source="P6fPGGLqOdUaFQ4JSGxW-119">
          <mxGeometry relative="1" as="geometry">
            <mxPoint x="-2580" y="1543.0000305175781" as="targetPoint" />
            <Array as="points">
              <mxPoint x="-2730" y="840" />
            </Array>
          </mxGeometry>
        </mxCell>
        <mxCell id="P6fPGGLqOdUaFQ4JSGxW-119" value="currentIndex&amp;lt;currentIndex1?" style="rhombus;whiteSpace=wrap;html=1;" vertex="1" parent="WIyWlLk6GJQsqaUBKTNV-1">
          <mxGeometry x="-2050" y="800" width="230" height="80" as="geometry" />
        </mxCell>
        <mxCell id="P6fPGGLqOdUaFQ4JSGxW-120" style="edgeStyle=orthogonalEdgeStyle;rounded=0;orthogonalLoop=1;jettySize=auto;html=1;exitX=0.5;exitY=1;exitDx=0;exitDy=0;entryX=0.5;entryY=0;entryDx=0;entryDy=0;" edge="1" parent="WIyWlLk6GJQsqaUBKTNV-1" source="P6fPGGLqOdUaFQ4JSGxW-121" target="P6fPGGLqOdUaFQ4JSGxW-124">
          <mxGeometry relative="1" as="geometry" />
        </mxCell>
        <mxCell id="P6fPGGLqOdUaFQ4JSGxW-121" value="i=0" style="rounded=0;whiteSpace=wrap;html=1;" vertex="1" parent="WIyWlLk6GJQsqaUBKTNV-1">
          <mxGeometry x="-2000" y="950" width="120" height="60" as="geometry" />
        </mxCell>
        <mxCell id="P6fPGGLqOdUaFQ4JSGxW-122" value="true" style="edgeStyle=orthogonalEdgeStyle;rounded=0;orthogonalLoop=1;jettySize=auto;html=1;exitX=0.5;exitY=1;exitDx=0;exitDy=0;entryX=0.5;entryY=0;entryDx=0;entryDy=0;" edge="1" parent="WIyWlLk6GJQsqaUBKTNV-1" source="P6fPGGLqOdUaFQ4JSGxW-124" target="P6fPGGLqOdUaFQ4JSGxW-127">
          <mxGeometry relative="1" as="geometry" />
        </mxCell>
        <mxCell id="P6fPGGLqOdUaFQ4JSGxW-123" value="false" style="edgeStyle=orthogonalEdgeStyle;rounded=0;orthogonalLoop=1;jettySize=auto;html=1;exitX=0;exitY=0.5;exitDx=0;exitDy=0;" edge="1" parent="WIyWlLk6GJQsqaUBKTNV-1" source="P6fPGGLqOdUaFQ4JSGxW-124">
          <mxGeometry relative="1" as="geometry">
            <mxPoint x="-2350" y="1090" as="targetPoint" />
          </mxGeometry>
        </mxCell>
        <mxCell id="P6fPGGLqOdUaFQ4JSGxW-124" value="i&amp;lt;currentIndex1?" style="rhombus;whiteSpace=wrap;html=1;" vertex="1" parent="WIyWlLk6GJQsqaUBKTNV-1">
          <mxGeometry x="-1980" y="1050" width="80" height="80" as="geometry" />
        </mxCell>
        <mxCell id="P6fPGGLqOdUaFQ4JSGxW-125" style="edgeStyle=orthogonalEdgeStyle;rounded=0;orthogonalLoop=1;jettySize=auto;html=1;exitX=0.5;exitY=1;exitDx=0;exitDy=0;" edge="1" parent="WIyWlLk6GJQsqaUBKTNV-1" source="P6fPGGLqOdUaFQ4JSGxW-127" target="P6fPGGLqOdUaFQ4JSGxW-129">
          <mxGeometry relative="1" as="geometry" />
        </mxCell>
        <mxCell id="P6fPGGLqOdUaFQ4JSGxW-126" value="false" style="edgeStyle=orthogonalEdgeStyle;rounded=0;orthogonalLoop=1;jettySize=auto;html=1;exitX=0;exitY=0.5;exitDx=0;exitDy=0;" edge="1" parent="WIyWlLk6GJQsqaUBKTNV-1" source="P6fPGGLqOdUaFQ4JSGxW-127">
          <mxGeometry relative="1" as="geometry">
            <mxPoint x="-2080" y="1210" as="targetPoint" />
          </mxGeometry>
        </mxCell>
        <mxCell id="P6fPGGLqOdUaFQ4JSGxW-127" value="i&amp;lt;currentIndex?" style="rhombus;whiteSpace=wrap;html=1;" vertex="1" parent="WIyWlLk6GJQsqaUBKTNV-1">
          <mxGeometry x="-1980" y="1170" width="80" height="80" as="geometry" />
        </mxCell>
        <mxCell id="P6fPGGLqOdUaFQ4JSGxW-128" style="edgeStyle=orthogonalEdgeStyle;rounded=0;orthogonalLoop=1;jettySize=auto;html=1;exitX=0.5;exitY=1;exitDx=0;exitDy=0;" edge="1" parent="WIyWlLk6GJQsqaUBKTNV-1" source="P6fPGGLqOdUaFQ4JSGxW-129">
          <mxGeometry relative="1" as="geometry">
            <mxPoint x="-1950" y="1370" as="targetPoint" />
          </mxGeometry>
        </mxCell>
        <mxCell id="P6fPGGLqOdUaFQ4JSGxW-129" value="swap = arr[i]&lt;br&gt;arr[i] = arr1[i]&lt;br&gt;arr1[i] = swap" style="rounded=0;whiteSpace=wrap;html=1;" vertex="1" parent="WIyWlLk6GJQsqaUBKTNV-1">
          <mxGeometry x="-2000" y="1290" width="120" height="60" as="geometry" />
        </mxCell>
        <mxCell id="P6fPGGLqOdUaFQ4JSGxW-130" style="edgeStyle=orthogonalEdgeStyle;rounded=0;orthogonalLoop=1;jettySize=auto;html=1;exitX=0.5;exitY=1;exitDx=0;exitDy=0;entryX=0.5;entryY=0;entryDx=0;entryDy=0;" edge="1" parent="WIyWlLk6GJQsqaUBKTNV-1" source="P6fPGGLqOdUaFQ4JSGxW-132" target="P6fPGGLqOdUaFQ4JSGxW-134">
          <mxGeometry relative="1" as="geometry" />
        </mxCell>
        <mxCell id="P6fPGGLqOdUaFQ4JSGxW-131" value="false" style="edgeStyle=orthogonalEdgeStyle;rounded=0;orthogonalLoop=1;jettySize=auto;html=1;exitX=0;exitY=0.5;exitDx=0;exitDy=0;" edge="1" parent="WIyWlLk6GJQsqaUBKTNV-1" source="P6fPGGLqOdUaFQ4JSGxW-132">
          <mxGeometry relative="1" as="geometry">
            <mxPoint x="-2120" y="1370" as="targetPoint" />
            <Array as="points">
              <mxPoint x="-2270" y="1210" />
            </Array>
          </mxGeometry>
        </mxCell>
        <mxCell id="P6fPGGLqOdUaFQ4JSGxW-132" value="i&amp;gt;currentIndex?" style="rhombus;whiteSpace=wrap;html=1;" vertex="1" parent="WIyWlLk6GJQsqaUBKTNV-1">
          <mxGeometry x="-2160" y="1170" width="80" height="80" as="geometry" />
        </mxCell>
        <mxCell id="P6fPGGLqOdUaFQ4JSGxW-133" style="edgeStyle=orthogonalEdgeStyle;rounded=0;orthogonalLoop=1;jettySize=auto;html=1;exitX=0.5;exitY=1;exitDx=0;exitDy=0;entryX=0.5;entryY=1;entryDx=0;entryDy=0;" edge="1" parent="WIyWlLk6GJQsqaUBKTNV-1" source="P6fPGGLqOdUaFQ4JSGxW-134" target="P6fPGGLqOdUaFQ4JSGxW-136">
          <mxGeometry relative="1" as="geometry">
            <mxPoint x="-2120" y="1400" as="targetPoint" />
          </mxGeometry>
        </mxCell>
        <mxCell id="P6fPGGLqOdUaFQ4JSGxW-134" value="arr[i] = arr1[i]&lt;br&gt;arr1[i] = &quot;\0&quot;" style="rounded=0;whiteSpace=wrap;html=1;" vertex="1" parent="WIyWlLk6GJQsqaUBKTNV-1">
          <mxGeometry x="-2180" y="1290" width="120" height="60" as="geometry" />
        </mxCell>
        <mxCell id="P6fPGGLqOdUaFQ4JSGxW-135" style="edgeStyle=orthogonalEdgeStyle;rounded=0;orthogonalLoop=1;jettySize=auto;html=1;exitX=0.5;exitY=0;exitDx=0;exitDy=0;entryX=1;entryY=0.5;entryDx=0;entryDy=0;" edge="1" parent="WIyWlLk6GJQsqaUBKTNV-1" source="P6fPGGLqOdUaFQ4JSGxW-136" target="P6fPGGLqOdUaFQ4JSGxW-124">
          <mxGeometry relative="1" as="geometry" />
        </mxCell>
        <mxCell id="P6fPGGLqOdUaFQ4JSGxW-136" value="i++" style="rounded=0;whiteSpace=wrap;html=1;" vertex="1" parent="WIyWlLk6GJQsqaUBKTNV-1">
          <mxGeometry x="-1810" y="1290" width="120" height="60" as="geometry" />
        </mxCell>
        <mxCell id="P6fPGGLqOdUaFQ4JSGxW-137" style="edgeStyle=orthogonalEdgeStyle;rounded=0;orthogonalLoop=1;jettySize=auto;html=1;exitX=0.5;exitY=1;exitDx=0;exitDy=0;" edge="1" parent="WIyWlLk6GJQsqaUBKTNV-1" source="P6fPGGLqOdUaFQ4JSGxW-138">
          <mxGeometry relative="1" as="geometry">
            <mxPoint x="-2455" y="1480" as="targetPoint" />
          </mxGeometry>
        </mxCell>
        <mxCell id="P6fPGGLqOdUaFQ4JSGxW-138" value="swap = currentIndex&lt;br&gt;currentIndex = currentIndex1&lt;br&gt;currentIndex1 = swap" style="rounded=0;whiteSpace=wrap;html=1;" vertex="1" parent="WIyWlLk6GJQsqaUBKTNV-1">
          <mxGeometry x="-2560" y="1060" width="210" height="60" as="geometry" />
        </mxCell>
        <mxCell id="P6fPGGLqOdUaFQ4JSGxW-139" style="edgeStyle=orthogonalEdgeStyle;rounded=0;orthogonalLoop=1;jettySize=auto;html=1;exitX=0.5;exitY=1;exitDx=0;exitDy=0;" edge="1" parent="WIyWlLk6GJQsqaUBKTNV-1" source="P6fPGGLqOdUaFQ4JSGxW-140">
          <mxGeometry relative="1" as="geometry">
            <mxPoint x="520" y="1170" as="targetPoint" />
            <Array as="points">
              <mxPoint x="-2579" y="1540" />
              <mxPoint x="-2579" y="1540" />
            </Array>
          </mxGeometry>
        </mxCell>
        <mxCell id="P6fPGGLqOdUaFQ4JSGxW-140" value="in mang arr[]" style="shape=parallelogram;perimeter=parallelogramPerimeter;whiteSpace=wrap;html=1;fixedSize=1;" vertex="1" parent="WIyWlLk6GJQsqaUBKTNV-1">
          <mxGeometry x="-2640" y="1450" width="120" height="60" as="geometry" />
        </mxCell>
        <mxCell id="P6fPGGLqOdUaFQ4JSGxW-141" value="false" style="text;html=1;align=center;verticalAlign=middle;resizable=0;points=[];autosize=1;strokeColor=none;fillColor=none;" vertex="1" parent="WIyWlLk6GJQsqaUBKTNV-1">
          <mxGeometry x="-2155" y="808" width="50" height="30" as="geometry" />
        </mxCell>
        <mxCell id="P6fPGGLqOdUaFQ4JSGxW-142" value="fa;se" style="text;html=1;align=center;verticalAlign=middle;resizable=0;points=[];autosize=1;strokeColor=none;fillColor=none;" vertex="1" parent="WIyWlLk6GJQsqaUBKTNV-1">
          <mxGeometry x="-1275" y="808" width="50" height="30" as="geometry" />
        </mxCell>
        <mxCell id="P6fPGGLqOdUaFQ4JSGxW-143" value="false" style="text;html=1;align=center;verticalAlign=middle;resizable=0;points=[];autosize=1;strokeColor=none;fillColor=none;" vertex="1" parent="WIyWlLk6GJQsqaUBKTNV-1">
          <mxGeometry x="-895" y="808" width="50" height="30" as="geometry" />
        </mxCell>
        <mxCell id="P6fPGGLqOdUaFQ4JSGxW-144" style="edgeStyle=orthogonalEdgeStyle;rounded=0;orthogonalLoop=1;jettySize=auto;html=1;exitX=0.5;exitY=1;exitDx=0;exitDy=0;entryX=0.5;entryY=0;entryDx=0;entryDy=0;" edge="1" parent="WIyWlLk6GJQsqaUBKTNV-1" source="P6fPGGLqOdUaFQ4JSGxW-146" target="P6fPGGLqOdUaFQ4JSGxW-148">
          <mxGeometry relative="1" as="geometry" />
        </mxCell>
        <mxCell id="P6fPGGLqOdUaFQ4JSGxW-145" style="edgeStyle=orthogonalEdgeStyle;rounded=0;orthogonalLoop=1;jettySize=auto;html=1;exitX=0;exitY=0.5;exitDx=0;exitDy=0;" edge="1" parent="WIyWlLk6GJQsqaUBKTNV-1" source="P6fPGGLqOdUaFQ4JSGxW-146">
          <mxGeometry relative="1" as="geometry">
            <mxPoint x="-1220" y="238.25" as="targetPoint" />
          </mxGeometry>
        </mxCell>
        <mxCell id="P6fPGGLqOdUaFQ4JSGxW-146" value="choice==5?" style="rhombus;whiteSpace=wrap;html=1;" vertex="1" parent="WIyWlLk6GJQsqaUBKTNV-1">
          <mxGeometry x="-1020" y="198" width="80" height="80" as="geometry" />
        </mxCell>
        <mxCell id="P6fPGGLqOdUaFQ4JSGxW-147" style="edgeStyle=orthogonalEdgeStyle;rounded=0;orthogonalLoop=1;jettySize=auto;html=1;exitX=0.5;exitY=1;exitDx=0;exitDy=0;entryX=0.5;entryY=0;entryDx=0;entryDy=0;" edge="1" parent="WIyWlLk6GJQsqaUBKTNV-1" source="P6fPGGLqOdUaFQ4JSGxW-148" target="P6fPGGLqOdUaFQ4JSGxW-150">
          <mxGeometry relative="1" as="geometry" />
        </mxCell>
        <mxCell id="P6fPGGLqOdUaFQ4JSGxW-148" value="reverseArr(arr,currentIndex)" style="rounded=0;whiteSpace=wrap;html=1;" vertex="1" parent="WIyWlLk6GJQsqaUBKTNV-1">
          <mxGeometry x="-1070" y="328" width="180" height="60" as="geometry" />
        </mxCell>
        <mxCell id="P6fPGGLqOdUaFQ4JSGxW-149" style="edgeStyle=orthogonalEdgeStyle;rounded=0;orthogonalLoop=1;jettySize=auto;html=1;exitX=0.5;exitY=1;exitDx=0;exitDy=0;" edge="1" parent="WIyWlLk6GJQsqaUBKTNV-1" source="P6fPGGLqOdUaFQ4JSGxW-150">
          <mxGeometry relative="1" as="geometry">
            <mxPoint x="-2720" y="630" as="targetPoint" />
            <Array as="points">
              <mxPoint x="-980" y="630" />
            </Array>
          </mxGeometry>
        </mxCell>
        <mxCell id="P6fPGGLqOdUaFQ4JSGxW-150" value="mang arr[] dao nguoc" style="shape=parallelogram;perimeter=parallelogramPerimeter;whiteSpace=wrap;html=1;fixedSize=1;" vertex="1" parent="WIyWlLk6GJQsqaUBKTNV-1">
          <mxGeometry x="-1040" y="430" width="120" height="60" as="geometry" />
        </mxCell>
        <mxCell id="P6fPGGLqOdUaFQ4JSGxW-151" style="edgeStyle=orthogonalEdgeStyle;rounded=0;orthogonalLoop=1;jettySize=auto;html=1;exitX=0.5;exitY=1;exitDx=0;exitDy=0;" edge="1" parent="WIyWlLk6GJQsqaUBKTNV-1" source="P6fPGGLqOdUaFQ4JSGxW-153">
          <mxGeometry relative="1" as="geometry">
            <mxPoint x="-1260.5" y="300" as="targetPoint" />
          </mxGeometry>
        </mxCell>
        <mxCell id="P6fPGGLqOdUaFQ4JSGxW-152" style="edgeStyle=orthogonalEdgeStyle;rounded=0;orthogonalLoop=1;jettySize=auto;html=1;exitX=0;exitY=0.5;exitDx=0;exitDy=0;" edge="1" parent="WIyWlLk6GJQsqaUBKTNV-1" source="P6fPGGLqOdUaFQ4JSGxW-153">
          <mxGeometry relative="1" as="geometry">
            <mxPoint x="-1430" y="238.25" as="targetPoint" />
          </mxGeometry>
        </mxCell>
        <mxCell id="P6fPGGLqOdUaFQ4JSGxW-153" value="choice==6?" style="rhombus;whiteSpace=wrap;html=1;" vertex="1" parent="WIyWlLk6GJQsqaUBKTNV-1">
          <mxGeometry x="-1300" y="198" width="80" height="80" as="geometry" />
        </mxCell>
        <mxCell id="P6fPGGLqOdUaFQ4JSGxW-154" style="edgeStyle=orthogonalEdgeStyle;rounded=0;orthogonalLoop=1;jettySize=auto;html=1;exitX=0.5;exitY=1;exitDx=0;exitDy=0;entryX=0.5;entryY=0;entryDx=0;entryDy=0;" edge="1" parent="WIyWlLk6GJQsqaUBKTNV-1" source="P6fPGGLqOdUaFQ4JSGxW-155" target="P6fPGGLqOdUaFQ4JSGxW-157">
          <mxGeometry relative="1" as="geometry" />
        </mxCell>
        <mxCell id="P6fPGGLqOdUaFQ4JSGxW-155" value="findValue" style="shape=parallelogram;perimeter=parallelogramPerimeter;whiteSpace=wrap;html=1;fixedSize=1;" vertex="1" parent="WIyWlLk6GJQsqaUBKTNV-1">
          <mxGeometry x="-1330" y="303" width="120" height="60" as="geometry" />
        </mxCell>
        <mxCell id="P6fPGGLqOdUaFQ4JSGxW-156" style="edgeStyle=orthogonalEdgeStyle;rounded=0;orthogonalLoop=1;jettySize=auto;html=1;exitX=0.5;exitY=1;exitDx=0;exitDy=0;" edge="1" parent="WIyWlLk6GJQsqaUBKTNV-1" source="P6fPGGLqOdUaFQ4JSGxW-157">
          <mxGeometry relative="1" as="geometry">
            <mxPoint x="-1270.5" y="500" as="targetPoint" />
          </mxGeometry>
        </mxCell>
        <mxCell id="P6fPGGLqOdUaFQ4JSGxW-157" value="searchValue(arr,currentIndex,findValue)" style="rounded=0;whiteSpace=wrap;html=1;" vertex="1" parent="WIyWlLk6GJQsqaUBKTNV-1">
          <mxGeometry x="-1330" y="400" width="120" height="60" as="geometry" />
        </mxCell>
        <mxCell id="P6fPGGLqOdUaFQ4JSGxW-158" style="edgeStyle=orthogonalEdgeStyle;rounded=0;orthogonalLoop=1;jettySize=auto;html=1;exitX=0;exitY=0.5;exitDx=0;exitDy=0;" edge="1" parent="WIyWlLk6GJQsqaUBKTNV-1" source="P6fPGGLqOdUaFQ4JSGxW-159">
          <mxGeometry relative="1" as="geometry">
            <mxPoint x="-2737.1110026041665" y="530.7777777777778" as="targetPoint" />
          </mxGeometry>
        </mxCell>
        <mxCell id="P6fPGGLqOdUaFQ4JSGxW-159" value="vi tri phan tu trong mang ( i )" style="shape=parallelogram;perimeter=parallelogramPerimeter;whiteSpace=wrap;html=1;fixedSize=1;" vertex="1" parent="WIyWlLk6GJQsqaUBKTNV-1">
          <mxGeometry x="-1330" y="500" width="120" height="60" as="geometry" />
        </mxCell>
        <mxCell id="P6fPGGLqOdUaFQ4JSGxW-160" style="edgeStyle=orthogonalEdgeStyle;rounded=0;orthogonalLoop=1;jettySize=auto;html=1;exitX=0.5;exitY=0;exitDx=0;exitDy=0;" edge="1" parent="WIyWlLk6GJQsqaUBKTNV-1" source="P6fPGGLqOdUaFQ4JSGxW-162">
          <mxGeometry relative="1" as="geometry">
            <mxPoint x="-1470.5" y="100.00000000000011" as="targetPoint" />
          </mxGeometry>
        </mxCell>
        <mxCell id="P6fPGGLqOdUaFQ4JSGxW-161" style="edgeStyle=orthogonalEdgeStyle;rounded=0;orthogonalLoop=1;jettySize=auto;html=1;exitX=0;exitY=0.5;exitDx=0;exitDy=0;" edge="1" parent="WIyWlLk6GJQsqaUBKTNV-1" source="P6fPGGLqOdUaFQ4JSGxW-162">
          <mxGeometry relative="1" as="geometry">
            <mxPoint x="-1620" y="239.5" as="targetPoint" />
          </mxGeometry>
        </mxCell>
        <mxCell id="P6fPGGLqOdUaFQ4JSGxW-162" value="choice==7?" style="rhombus;whiteSpace=wrap;html=1;" vertex="1" parent="WIyWlLk6GJQsqaUBKTNV-1">
          <mxGeometry x="-1510" y="200" width="80" height="80" as="geometry" />
        </mxCell>
        <mxCell id="P6fPGGLqOdUaFQ4JSGxW-163" value="end" style="ellipse;whiteSpace=wrap;html=1;" vertex="1" parent="WIyWlLk6GJQsqaUBKTNV-1">
          <mxGeometry x="-1530" y="20" width="120" height="80" as="geometry" />
        </mxCell>
        <mxCell id="P6fPGGLqOdUaFQ4JSGxW-164" style="edgeStyle=orthogonalEdgeStyle;rounded=0;orthogonalLoop=1;jettySize=auto;html=1;exitX=0.5;exitY=1;exitDx=0;exitDy=0;entryX=0.5;entryY=0;entryDx=0;entryDy=0;" edge="1" parent="WIyWlLk6GJQsqaUBKTNV-1" source="P6fPGGLqOdUaFQ4JSGxW-165" target="P6fPGGLqOdUaFQ4JSGxW-167">
          <mxGeometry relative="1" as="geometry" />
        </mxCell>
        <mxCell id="P6fPGGLqOdUaFQ4JSGxW-165" value="default?" style="rhombus;whiteSpace=wrap;html=1;" vertex="1" parent="WIyWlLk6GJQsqaUBKTNV-1">
          <mxGeometry x="-1700" y="200" width="80" height="80" as="geometry" />
        </mxCell>
        <mxCell id="P6fPGGLqOdUaFQ4JSGxW-166" style="edgeStyle=orthogonalEdgeStyle;rounded=0;orthogonalLoop=1;jettySize=auto;html=1;exitX=0;exitY=0.5;exitDx=0;exitDy=0;" edge="1" parent="WIyWlLk6GJQsqaUBKTNV-1" source="P6fPGGLqOdUaFQ4JSGxW-167">
          <mxGeometry relative="1" as="geometry">
            <mxPoint x="-2730" y="830" as="targetPoint" />
          </mxGeometry>
        </mxCell>
        <mxCell id="P6fPGGLqOdUaFQ4JSGxW-167" value="nhap lai" style="shape=parallelogram;perimeter=parallelogramPerimeter;whiteSpace=wrap;html=1;fixedSize=1;" vertex="1" parent="WIyWlLk6GJQsqaUBKTNV-1">
          <mxGeometry x="-1720" y="318" width="120" height="60" as="geometry" />
        </mxCell>
      </root>
    </mxGraphModel>
  </diagram>
</mxfile>
